:FULLY-SPECIFIED
:FORCE-ALL-JOINTS-BE-3DOF
:DEGREES
985
root 1.19981 15.2718 32.8811 6.83493 -5.35972 4.76238
lfemur 6.52615 -1.6911 3.70516
ltibia 2.70161 -0 0
lfoot -32.4753 -14.68 -0.170329
ltoes -33.5951 0 0
rfemur -28.5063 -9.37441 -9.99727
rtibia 43.2464 -0 0
rfoot -19.6763 -0.551458 -0.432646
rtoes -46.2114 0 0
lowerback -4.00232 -0.357664 -0.0756543
upperback -1.5444 -0.462839 -7.32949
thorax 0.494857 -0.234531 -7.67813
lowerneck -7.05497 0.998619 4.34285
upperneck 1.90281 0.802405 3.69207
head 1.78297 0.533867 0.460528
lclavicle 6.3562e-15 -3.99127e-14 -1.34185e-30
lhumerus -60.0479 -44.2591 113.434
lradius 55.1816 -0 0
lwrist 26.5895 0 0
lhand 41.4847 25.4203 -0.124106
lfingers 7.12502 -0 0
lthumb 63.6592 35.0139 -0.048862
rclavicle 6.3562e-15 -3.99127e-14 -1.34185e-30
rhumerus 1.99381 -1.86683 -0.64615
rradius 34.3928 -0 0
rwrist -14.7047 0 0
rhand -18.618 -37.3805 -0.258459
rfingers 7.12502 -0 0
rthumb 7.67355 -67.2344 -0.23676
986
root 1.19844 15.2697 32.8806 6.82586 -5.36948 4.74834
lfemur 6.55329 -1.69305 3.7307
ltibia 2.67924 -0 0
lfoot -32.4893 -14.6471 -0.170563
ltoes -33.6298 0 0
rfemur -28.5039 -9.40921 -9.98071
rtibia 43.2533 -0 0
rfoot -19.7302 -0.507097 -0.433914
rtoes -46.1928 0 0
lowerback -3.99404 -0.350054 -0.0759745
upperback -1.53763 -0.452544 -7.3198
thorax 0.498342 -0.229148 -7.66726
lowerneck -7.05977 0.999512 4.36634
upperneck 1.90293 0.801143 3.69297
head 1.7839 0.533546 0.456814
lclavicle 6.35604e-15 -3.91616e-14 -1.30993e-30
lhumerus -60.0451 -44.2821 113.466
lradius 55.1811 -0 0
lwrist 26.5897 0 0
lhand 41.4568 25.4311 -0.124295
lfingers 7.12502 -0 0
lthumb 63.636 35.0543 -0.0496923
rclavicle 6.35604e-15 -3.91616e-14 -1.30993e-30
rhumerus 2.04052 -2.0949 -0.580999
rradius 34.2754 -0 0
rwrist -14.639 0 0
rhand -18.7216 -37.4019 -0.255893
rfingers 7.12502 -0 0
rthumb 7.57345 -67.2573 -0.234206
987
root 1.19718 15.2676 32.88 6.81621 -5.37774 4.73407
lfemur 6.57966 -1.69347 3.75578
ltibia 2.65851 -0 0
lfoot -32.5027 -14.6133 -0.170679
ltoes -33.6632 0 0
rfemur -28.5026 -9.44555 -9.96295
rtibia 43.2634 -0 0
rfoot -19.7827 -0.461693 -0.434888
rtoes -46.1721 0 0
lowerback -3.98507 -0.342626 -0.0765682
upperback -1.53059 -0.442465 -7.30976
thorax 0.501756 -0.223885 -7.65583
lowerneck -7.06465 1.00015 4.38984
upperneck 1.90321 0.799523 3.69395
head 1.7849 0.533053 0.45311
lclavicle 6.35275e-15 -3.84028e-14 -1.27674e-30
lhumerus -60.0413 -44.3054 113.498
lradius 55.1809 -0 0
lwrist 26.5894 0 0
lhand 41.428 25.4414 -0.124397
lfingers 7.12502 -0 0
lthumb 63.6121 35.0949 -0.0504969
rclavicle 6.35275e-15 -3.84028e-14 -1.27674e-30
rhumerus 2.08483 -2.32421 -0.518487
rradius 34.1596 -0 0
rwrist -14.5732 0 0
rhand -18.8273 -37.4245 -0.253116
rfingers 7.12502 -0 0
rthumb 7.47145 -67.2813 -0.231456
988
root 1.19603 15.2656 32.8793 6.80599 -5.38455 4.71957
lfemur 6.60525 -1.6924 3.78042
ltibia 2.63941 -0 0
lfoot -32.5153 -14.5786 -0.170678
ltoes -33.6955 0 0
rfemur -28.5023 -9.4834 -9.94399
rtibia 43.2766 -0 0
rfoot -19.8339 -0.415271 -0.435574
rtoes -46.1494 0 0
lowerback -3.97542 -0.335378 -0.0774295
upperback -1.52329 -0.432599 -7.29936
thorax 0.505099 -0.21874 -7.64385
lowerneck -7.0696 1.00054 4.41335
upperneck 1.90365 0.797553 3.69503
head 1.78598 0.532392 0.449418
lclavicle 6.34638e-15 -3.76366e-14 -1.24235e-30
lhumerus -60.0367 -44.3289 113.529
lradius 55.181 -0 0
lwrist 26.5884 0 0
lhand 41.3984 25.4512 -0.124414
lfingers 7.12502 -0 0
lthumb 63.5875 35.1357 -0.0512748
rclavicle 6.34638e-15 -3.76366e-14 -1.24235e-30
rhumerus 2.12679 -2.55471 -0.458559
rradius 34.0455 -0 0
rwrist -14.5071 0 0
rhand -18.9348 -37.4483 -0.250135
rfingers 7.12502 -0 0
rthumb 7.36759 -67.3064 -0.228517
989
root 1.19497 15.2636 32.8785 6.79522 -5.38993 4.70484
lfemur 6.6301 -1.68986 3.80461
ltibia 2.62189 -0 0
lfoot -32.5273 -14.543 -0.170564
ltoes -33.7265 0 0
rfemur -28.5031 -9.52272 -9.92388
rtibia 43.293 -0 0
rfoot -19.8839 -0.367857 -0.435976
rtoes -46.1247 0 0
lowerback -3.9651 -0.328306 -0.0785531
upperback -1.51573 -0.422943 -7.28863
thorax 0.508372 -0.213711 -7.63132
lowerneck -7.07462 1.00068 4.43686
upperneck 1.90423 0.795239 3.69619
head 1.78712 0.531567 0.445736
lclavicle 6.337e-15 -3.68631e-14 -1.20686e-30
lhumerus -60.0313 -44.3528 113.56
lradius 55.1814 -0 0
lwrist 26.5869 0 0
lhand 41.368 25.4605 -0.124348
lfingers 7.12502 -0 0
lthumb 63.5621 35.1767 -0.0520253
rclavicle 6.337e-15 -3.68631e-14 -1.20686e-30
rhumerus 2.16645 -2.78635 -0.401162
rradius 33.9329 -0 0
rwrist -14.4409 0 0
rhand -19.0443 -37.4731 -0.246962
rfingers 7.12502 -0 0
rthumb 7.26192 -67.3327 -0.225401
990
root 1.19401 15.2617 32.8776 6.7839 -5.39391 4.6899
lfemur 6.65421 -1.6859 3.82837
ltibia 2.60594 -0 0
lfoot -32.5386 -14.5065 -0.170338
ltoes -33.7563 0 0
rfemur -28.5049 -9.56348 -9.90264
rtibia 43.3123 -0 0
rfoot -19.9326 -0.319479 -0.4361
rtoes -46.098 0 0
lowerback -3.95413 -0.321409 -0.0799333
upperback -1.50792 -0.413493 -7.27758
thorax 0.511577 -0.208797 -7.61827
lowerneck -7.07971 1.00059 4.46037
upperneck 1.90496 0.79259 3.69744
head 1.78834 0.530579 0.442065
lclavicle 6.32466e-15 -3.60827e-14 -1.17038e-30
lhumerus -60.0251 -44.3768 113.591
lradius 55.1821 -0 0
lwrist 26.5849 0 0
lhand 41.3367 25.4693 -0.124201
lfingers 7.12502 -0 0
lthumb 63.5361 35.2178 -0.0527476
rclavicle 6.32466e-15 -3.60827e-14 -1.17038e-30
rhumerus 2.20387 -3.01908 -0.346241
rradius 33.8219 -0 0
rwrist -14.3745 0 0
rhand -19.1555 -37.499 -0.243605
rfingers 7.12502 -0 0
rthumb 7.1545 -67.36 -0.222116
991
root 1.19315 15.2598 32.8766 6.77205 -5.39651 4.67475
lfemur 6.67759 -1.68052 3.8517
ltibia 2.59151 -0 0
lfoot -32.5492 -14.4692 -0.170004
ltoes -33.785 0 0
rfemur -28.5078 -9.60564 -9.88028
rtibia 43.3346 -0 0
rfoot -19.9801 -0.270161 -0.43595
rtoes -46.0695 0 0
lowerback -3.94253 -0.314683 -0.0815646
upperback -1.49986 -0.404247 -7.2662
thorax 0.514715 -0.203996 -7.6047
lowerneck -7.08487 1.00026 4.48388
upperneck 1.90584 0.789612 3.69878
head 1.78963 0.529434 0.438406
lclavicle 6.30943e-15 -3.52955e-14 -1.13297e-30
lhumerus -60.0181 -44.4011 113.621
lradius 55.1831 -0 0
lwrist 26.5822 0 0
lhand 41.3047 25.4776 -0.123974
lfingers 7.12502 -0 0
lthumb 63.5093 35.2591 -0.0534409
rclavicle 6.30943e-15 -3.52955e-14 -1.13297e-30
rhumerus 2.2391 -3.25283 -0.293743
rradius 33.7124 -0 0
rwrist -14.308 0 0
rhand -19.2685 -37.526 -0.240074
rfingers 7.12502 -0 0
rthumb 7.04537 -67.3883 -0.21867
992
root 1.19239 15.2579 32.8756 6.75968 -5.39778 4.6594
lfemur 6.70026 -1.67376 3.87462
ltibia 2.57858 -0 0
lfoot -32.5592 -14.4311 -0.169563
ltoes -33.8126 0 0
rfemur -28.5116 -9.64916 -9.85684
rtibia 43.3598 -0 0
rfoot -20.0264 -0.219931 -0.435533
rtoes -46.039 0 0
lowerback -3.93031 -0.308125 -0.0834413
upperback -1.49156 -0.395202 -7.2545
thorax 0.517786 -0.199306 -7.59063
lowerneck -7.0901 0.999702 4.50739
upperneck 1.90685 0.786313 3.70019
head 1.79098 0.528134 0.434759
lclavicle 6.29137e-15 -3.45018e-14 -1.09474e-30
lhumerus -60.0103 -44.4257 113.651
lradius 55.1843 -0 0
lwrist 26.5791 0 0
lhand 41.2719 25.4854 -0.123671
lfingers 7.12502 -0 0
lthumb 63.4819 35.3006 -0.0541047
rclavicle 6.29137e-15 -3.45018e-14 -1.09474e-30
rhumerus 2.27218 -3.48755 -0.243614
rradius 33.6044 -0 0
rwrist -14.2413 0 0
rhand -19.3833 -37.554 -0.236379
rfingers 7.12502 -0 0
rthumb 6.93458 -67.4176 -0.215074
993
root 1.19171 15.2561 32.8744 6.74681 -5.39772 4.64384
lfemur 6.72223 -1.66565 3.89712
ltibia 2.56712 -0 0
lfoot -32.5686 -14.3922 -0.169018
ltoes -33.839 0 0
rfemur -28.5165 -9.69401 -9.83234
rtibia 43.3878 -0 0
rfoot -20.0714 -0.168813 -0.434854
rtoes -46.0068 0 0
lowerback -3.91748 -0.301732 -0.085558
upperback -1.48302 -0.386355 -7.2425
thorax 0.520792 -0.194725 -7.57607
lowerneck -7.09539 0.99892 4.53089
upperneck 1.908 0.7827 3.70169
head 1.7924 0.526683 0.431123
lclavicle 6.27055e-15 -3.37019e-14 -1.05577e-30
lhumerus -60.0017 -44.4505 113.68
lradius 55.1858 -0 0
lwrist 26.5754 0 0
lhand 41.2384 25.4927 -0.123291
lfingers 7.12502 -0 0
lthumb 63.4539 35.3422 -0.0547381
rclavicle 6.27055e-15 -3.37019e-14 -1.05577e-30
rhumerus 2.30316 -3.72319 -0.195801
rradius 33.498 -0 0
rwrist -14.1745 0 0
rhand -19.4997 -37.583 -0.232528
rfingers 7.12502 -0 0
rthumb 6.82218 -67.448 -0.211335
994
root 1.19113 15.2543 32.8732 6.73344 -5.39639 4.62809
lfemur 6.74351 -1.65623 3.91921
ltibia 2.5571 -0 0
lfoot -32.5774 -14.3525 -0.168373
ltoes -33.8643 0 0
rfemur -28.5223 -9.74016 -9.8068
rtibia 43.4186 -0 0
rfoot -20.1153 -0.116835 -0.433917
rtoes -45.9728 0 0
lowerback -3.90405 -0.295502 -0.0879092
upperback -1.47426 -0.377703 -7.23021
thorax 0.523733 -0.190252 -7.56103
lowerneck -7.10074 0.997917 4.55438
upperneck 1.90929 0.77878 3.70326
head 1.79388 0.525085 0.4275
lclavicle 6.24703e-15 -3.2896e-14 -1.01615e-30
lhumerus -59.9924 -44.4755 113.709
lradius 55.1875 -0 0
lwrist 26.5712 0 0
lhand 41.2041 25.4995 -0.122838
lfingers 7.12502 -0 0
lthumb 63.4252 35.384 -0.0553405
rclavicle 6.24703e-15 -3.2896e-14 -1.01615e-30
rhumerus 2.3321 -3.95969 -0.150251
rradius 33.3931 -0 0
rwrist -14.1076 0 0
rhand -19.6177 -37.613 -0.228533
rfingers 7.12502 -0 0
rthumb 6.70822 -67.4793 -0.207464
995
root 1.19064 15.2525 32.872 6.71959 -5.3938 4.61216
lfemur 6.76412 -1.64552 3.9409
ltibia 2.54849 -0 0
lfoot -32.5855 -14.3121 -0.167629
ltoes -33.8886 0 0
rfemur -28.529 -9.78757 -9.78024
rtibia 43.4521 -0 0
rfoot -20.1581 -0.0640215 -0.432729
rtoes -45.937 0 0
lowerback -3.89005 -0.289431 -0.0904892
upperback -1.46527 -0.369243 -7.21762
thorax 0.526612 -0.185885 -7.54553
lowerneck -7.10616 0.996701 4.57785
upperneck 1.91071 0.774561 3.70491
head 1.79542 0.523342 0.423889
lclavicle 6.22087e-15 -3.20842e-14 -9.75958e-31
lhumerus -59.9823 -44.5007 113.738
lradius 55.1895 -0 0
lwrist 26.5666 0 0
lhand 41.1692 25.5059 -0.122313
lfingers 7.12502 -0 0
lthumb 63.3959 35.4258 -0.0559112
rclavicle 6.22087e-15 -3.20842e-14 -9.75958e-31
rhumerus 2.35904 -4.197 -0.106911
rradius 33.2896 -0 0
rwrist -14.0406 0 0
rhand -19.7373 -37.644 -0.2244
rfingers 7.12502 -0 0
rthumb 6.59273 -67.5116 -0.203469
996
root 1.19023 15.2508 32.8706 6.70528 -5.38998 4.59605
lfemur 6.78407 -1.63355 3.9622
ltibia 2.54125 -0 0
lfoot -32.5931 -14.2709 -0.16679
ltoes -33.9118 0 0
rfemur -28.5366 -9.8362 -9.7527
rtibia 43.4882 -0 0
rfoot -20.1997 -0.0103997 -0.431295
rtoes -45.8996 0 0
lowerback -3.87549 -0.283518 -0.0932926
upperback -1.45607 -0.360972 -7.20475
thorax 0.529428 -0.181622 -7.52957
lowerneck -7.11163 0.995275 4.60132
upperneck 1.91226 0.770049 3.70664
head 1.79702 0.521459 0.42029
lclavicle 6.19213e-15 -3.1267e-14 -9.3529e-31
lhumerus -59.9716 -44.5262 113.767
lradius 55.1918 -0 0
lwrist 26.5614 0 0
lhand 41.1335 25.5119 -0.121718
lfingers 7.12502 -0 0
lthumb 63.366 35.4678 -0.0564498
rclavicle 6.19213e-15 -3.1267e-14 -9.3529e-31
rhumerus 2.38403 -4.43506 -0.0657294
rradius 33.1876 -0 0
rwrist -13.9735 0 0
rhand -19.8584 -37.6758 -0.22014
rfingers 7.12502 -0 0
rthumb 6.4758 -67.5448 -0.199358
997
root 1.18991 15.2491 32.8692 6.6905 -5.38496 4.57975
lfemur 6.80337 -1.62035 3.98312
ltibia 2.53536 -0 0
lfoot -32.6001 -14.229 -0.165857
ltoes -33.934 0 0
rfemur -28.5452 -9.88602 -9.7242
rtibia 43.5268 -0 0
rfoot -20.2403 0.0440049 -0.42962
rtoes -45.8605 0 0
lowerback -3.86039 -0.277758 -0.0963139
upperback -1.44666 -0.352887 -7.19162
thorax 0.532183 -0.177461 -7.51317
lowerneck -7.11717 0.993646 4.62476
upperneck 1.91393 0.765252 3.70844
head 1.79868 0.519438 0.416704
lclavicle 6.16087e-15 -3.04444e-14 -8.94226e-31
lhumerus -59.9602 -44.5518 113.795
lradius 55.1943 -0 0
lwrist 26.5558 0 0
lhand 41.0972 25.5174 -0.121055
lfingers 7.12502 -0 0
lthumb 63.3356 35.51 -0.0569556
rclavicle 6.16087e-15 -3.04444e-14 -8.94226e-31
rhumerus 2.40712 -4.67383 -0.0266533
rradius 33.087 -0 0
rwrist -13.9064 0 0
rhand -19.981 -37.7086 -0.215762
rfingers 7.12502 -0 0
rthumb 6.35745 -67.5789 -0.19514
